<?xml version="1.0" encoding="UTF-8" standalone="no"?>
<svg
   xmlns:dc="http://purl.org/dc/elements/1.1/"
   xmlns:cc="http://creativecommons.org/ns#"
   xmlns:rdf="http://www.w3.org/1999/02/22-rdf-syntax-ns#"
   xmlns:svg="http://www.w3.org/2000/svg"
   xmlns="http://www.w3.org/2000/svg"
   xmlns:xlink="http://www.w3.org/1999/xlink"
   xmlns:sodipodi="http://sodipodi.sourceforge.net/DTD/sodipodi-0.dtd"
   xmlns:inkscape="http://www.inkscape.org/namespaces/inkscape"
   width="297mm"
   height="210mm"
   viewBox="0 0 297 210"
   version="1.1"
   id="svg5"
   sodipodi:docname="logo_roboto_dark.svg"
   inkscape:export-filename="C:\Users\KrzysiekW\Desktop\logo_roboto_dark.png"
   inkscape:export-xdpi="96"
   inkscape:export-ydpi="96"
   inkscape:version="1.0.1 (3bc2e813f5, 2020-09-07)">
  <metadata
     id="metadata63">
    <rdf:RDF>
      <cc:Work
         rdf:about="">
        <dc:format>image/svg+xml</dc:format>
        <dc:type
           rdf:resource="http://purl.org/dc/dcmitype/StillImage" />
      </cc:Work>
    </rdf:RDF>
  </metadata>
  <sodipodi:namedview
     pagecolor="#ffffff"
     bordercolor="#666666"
     borderopacity="1"
     objecttolerance="10"
     gridtolerance="10"
     guidetolerance="10"
     inkscape:pageopacity="0"
     inkscape:pageshadow="2"
     inkscape:window-width="1920"
     inkscape:window-height="1017"
     id="namedview61"
     showgrid="false"
     inkscape:snap-nodes="false"
     inkscape:zoom="0.32740517"
     inkscape:cx="415.85977"
     inkscape:cy="456.94335"
     inkscape:window-x="-8"
     inkscape:window-y="-8"
     inkscape:window-maximized="1"
     inkscape:current-layer="layer5" />
  <defs
     id="defs2">
    <linearGradient
       id="linearGradient98140">
      <stop
         style="stop-color:#3498db;stop-opacity:1;"
         offset="0"
         id="stop98136" />
      <stop
         style="stop-color:#3498db;stop-opacity:0;"
         offset="1"
         id="stop98138" />
    </linearGradient>
    <linearGradient
       xlink:href="#linearGradient98140"
       id="linearGradient98142"
       x1="47.940268"
       y1="54.029937"
       x2="279.09014"
       y2="54.029937"
       gradientUnits="userSpaceOnUse" />
    <linearGradient
       xlink:href="#linearGradient98140"
       id="linearGradient880"
       gradientUnits="userSpaceOnUse"
       x1="47.940268"
       y1="54.029937"
       x2="279.09014"
       y2="54.029937" />
    <linearGradient
       xlink:href="#linearGradient98140"
       id="linearGradient882"
       gradientUnits="userSpaceOnUse"
       x1="47.940268"
       y1="54.029937"
       x2="279.09014"
       y2="54.029937" />
    <linearGradient
       xlink:href="#linearGradient98140"
       id="linearGradient884"
       gradientUnits="userSpaceOnUse"
       x1="47.940268"
       y1="54.029937"
       x2="279.09014"
       y2="54.029937" />
  </defs>
  <g
     id="layer4"
     style="display:none;opacity:0.288462">
    <g
       id="layer3-0"
       style="display:inline">
      <path
         style="fill:#161616;fill-opacity:1;stroke-width:0.707107"
         d="m 302.59475,386.64378 c -19.81237,1.01077 -39.54481,3.28591 -59.3735,3.88632 -1.08642,7.80126 -0.10405,16.42463 -0.39293,24.54282 0.26787,38.32876 -0.0816,76.67597 1.01442,114.99062 1.2204,11.54227 8.36206,22.5586 18.9151,27.57578 7.50208,3.11115 15.48802,5.00094 23.65631,4.39198 10.49798,0.27891 21.23143,-0.47885 30.83434,-5.12583 7.75088,-3.10264 13.86803,-9.21457 20.22927,-14.15959 0.91187,5.37518 -0.34471,11.55198 0.87283,16.72198 21.44891,0 42.89782,0 64.34672,0 1.16331,-7.06059 0.16908,-15.01486 0.49995,-22.42026 0,-49.96888 0,-99.93776 0,-149.90664 -6.75353,-1.25622 -14.3266,0.38278 -21.39353,0.54697 -14.48061,1.13167 -28.96528,2.11717 -43.47523,2.66954 -1.11726,7.79817 -0.17218,16.42424 -0.49438,24.54157 -0.34197,27.8704 0.75252,55.93003 -2.06261,83.65442 -1.56595,8.96987 -4.00657,18.70094 -10.75375,25.20827 -3.03662,1.8391 -6.50143,4.92407 -10.14808,4.49399 -4.93211,-2.27137 -5.53016,-8.01321 -5.52284,-12.7587 -1.32591,-42.76756 -0.65773,-85.57277 -0.90189,-128.35606 -1.45716,-1.08419 -4.01172,-0.25946 -5.8502,-0.49718 z"
         id="path14707-3"
         transform="scale(0.26458333)" />
      <path
         style="fill:#161616;fill-opacity:1;stroke-width:0.707107"
         d="m 491.58284,386.92828 c -16.31561,1.60825 -32.58696,3.63617 -49.03896,3.24827 -3.61011,0.57516 -11.00272,-2.21474 -9.23382,4.03548 0,54.91863 0,109.83725 0,164.75588 7.0606,1.1633 15.01486,0.16908 22.42026,0.49995 14.37784,0 28.75568,0 43.13351,0 1.17365,-7.05931 0.19503,-15.01406 0.53829,-22.41885 0.13398,-30.94751 -0.007,-61.98739 1.36952,-92.86518 2.94672,-7.76827 4.43315,-16.90026 10.55357,-22.93463 2.91526,-1.32457 3.67663,3.38565 3.68469,5.42345 -0.46908,9.74079 -5.30328,18.84529 -5.25772,28.66683 5.39089,1.49207 11.48794,0.51326 17.11557,0.87974 10.04995,-0.18342 20.43028,0.0895 30.2371,-1.28716 3.90403,-17.01827 9.46082,-35.49326 3.06873,-52.62559 -3.57692,-8.84869 -12.39631,-16.47748 -22.42578,-15.29533 -6.2666,0.20789 -12.74028,-0.50065 -18.87873,0.33891 -7.67508,2.96135 -13.69398,8.70867 -19.50529,14.31837 -0.38464,-4.98609 0.74763,-10.63043 -0.53309,-15.22766 -2.41595,0.16251 -4.8319,0.32501 -7.24785,0.48752 z"
         id="path14746-3"
         transform="scale(0.26458333)" />
      <path
         style="fill:#161616;fill-opacity:1;stroke-width:0.707107"
         d="m 654.32789,386.75426 c -12.55141,0.1493 -25.43939,-0.29563 -37.34018,4.40498 -20.9113,6.03528 -37.16023,24.04643 -42.57972,44.92065 -5.39291,16.42322 -4.37444,33.88952 -4.49624,50.91741 1.38799,17.40256 5.21056,35.69833 16.39716,49.62217 13.96786,17.83178 37.08949,25.56862 59.09728,26.06352 23.83493,1.31008 50.04096,-1.99249 68.52721,-18.48008 12.27982,-11.08024 18.56713,-27.3436 21.61371,-43.25504 1.32444,-16.29866 2.0091,-32.78822 0.50491,-49.09339 -2.5674,-21.3964 -12.68279,-43.40556 -32.07888,-54.37899 -12.85728,-7.65777 -27.82557,-10.98629 -42.71485,-10.70093 -2.30991,-0.0375 -4.62029,-0.0339 -6.9304,-0.0203 z m -0.80931,21.3527 c 6.03578,1.13761 7.99603,8.31862 9.97637,13.28791 6.80624,20.44555 4.53631,42.33894 5.17671,63.57128 -0.20932,17.1187 -0.32965,35.4211 -8.89407,50.74319 -1.49906,2.63219 -5.35369,7.75806 -8.59025,4.56029 -7.90347,-6.70515 -9.15376,-17.62636 -11.10182,-27.1841 -2.576,-21.07719 -1.84449,-42.52251 -1.30243,-63.75308 0.83556,-12.86677 2.32452,-26.48544 9.3148,-37.64162 1.29057,-1.73475 3.10121,-3.58798 5.42069,-3.58387 z"
         id="path14785-2"
         transform="scale(0.26458333)" />
      <path
         style="fill:#161616;fill-opacity:1;stroke-width:0.707107"
         d="m 821.4813,386.6424 c -17.31167,1.55671 -34.56999,3.52133 -51.98368,3.51365 -3.66477,0.71179 -11.23296,-1.98452 -9.50422,4.26314 0,54.84957 0,109.69915 0,164.54872 7.06059,1.1633 15.01486,0.16908 22.42025,0.49995 14.14214,0 28.28427,0 42.42641,0 1.16519,-7.06059 0.17382,-15.01486 0.50695,-22.42026 0.33369,-29.38279 -0.76519,-58.90669 1.16552,-88.19914 1.07955,-9.50672 4.15056,-19.14483 9.80421,-26.89216 2.34258,-2.90056 5.42553,1.76545 4.92627,4.15702 -1.00337,10.09082 -5.77946,19.5262 -5.81154,29.80068 3.80774,1.07047 8.55682,-0.54208 12.74588,-0.17954 11.42824,-0.29755 22.86121,-0.18818 34.29191,-0.21544 2.98919,-9.57674 5.1705,-19.9705 6.16647,-30.15562 0.29923,-11.04101 0.29507,-24.15865 -8.64825,-32.14298 -5.26502,-6.18793 -13.78465,-6.4113 -21.25462,-6.22233 -6.13653,0.46558 -12.88928,-1.59294 -18.1652,2.5045 -5.67982,2.94241 -10.18557,7.5561 -14.98735,11.67417 -0.71163,-4.77874 0.47032,-10.0961 -0.74025,-14.53574 -1.11959,4.6e-4 -2.23917,9.2e-4 -3.35876,10e-4 z"
         id="path14824-1"
         transform="scale(0.26458333)" />
      <path
         style="fill:#161616;fill-opacity:1;stroke-width:0.707107"
         d="m 974.38762,386.04439 c -19.04147,0.32273 -39.71649,1.19995 -55.89734,12.45448 -8.07284,5.69897 -14.05331,15.05279 -13.15249,25.23618 0.23094,6.87473 -0.63624,14.11067 0.71321,20.79343 11.30381,3.14605 22.99192,5.32995 34.71314,6.25347 1.96662,-6.33231 -1.9165,-13.16135 -2.2877,-19.72178 -1.58006,-7.7346 1.60983,-16.27733 8.50389,-20.42172 7.51308,-4.23513 16.84143,-4.36789 24.98766,-2.10751 9.43901,4.34857 15.3234,18.03401 8.34027,26.83277 -9.18621,11.35687 -23.70051,16.34219 -36.93252,21.36236 -15.03523,5.13276 -30.90149,11.39289 -40.49291,24.80536 -6.73832,8.44341 -9.63363,19.42617 -8.84846,30.12521 -0.32849,13.39581 1.65004,28.28885 12.08982,37.82057 11.81015,11.6342 29.4055,14.24561 45.30416,13.04264 12.91903,-0.032 26.25117,-3.47356 35.9113,-12.46111 2.76748,-4.07217 5.17999,1.64658 7.82562,3.16806 11.51933,10.01061 27.88613,8.23187 42.03003,7.937 12.4937,-0.20058 24.9636,-3.52064 36.3392,-8.10133 0.1957,-7.13877 -3.3662,-13.70542 -5.2798,-20.4191 -4.2361,-1.33237 -8.5663,0.64681 -12.681,1.61723 -5.281,-0.53907 -5.9315,-7.38746 -5.7977,-11.52362 -0.9991,-36.19833 -0.8747,-72.42937 -1.3949,-108.62652 -3.6379,-9.81759 -11.5315,-17.58303 -21.2498,-21.36317 -16.5495,-7.06654 -35.12498,-6.35602 -52.74368,-6.7029 z m 8.59853,82.98423 c 1.01216,12.82819 0.0281,25.8122 -0.0953,38.69002 -0.0152,8.36026 -1.98081,17.75291 -8.66755,23.37656 -2.77622,2.1376 -7.18271,2.73477 -9.075,-0.83417 -5.15351,-7.33418 -4.71683,-16.99866 -5.13481,-25.5539 -0.17676,-12.38665 5.51137,-24.97412 16.12534,-31.75627 2.16971,-1.35393 4.46701,-3.23304 6.84734,-3.92224 z"
         id="path14863-9"
         transform="scale(0.26458333)" />
      <path
         style="display:inline;fill:#161616;fill-opacity:1;stroke-width:0.187089"
         d="m 35.447728,101.45833 c -5.03806,0.0854 -10.50833,0.31749 -14.78951,3.29525 -2.13594,1.50785 -3.71827,3.98272 -3.47993,6.67707 0.0611,1.81894 -0.16834,3.73345 0.18871,5.5016 2.9908,0.83239 6.08327,1.41021 9.18451,1.65456 0.52034,-1.67542 -0.50707,-3.48227 -0.60528,-5.21805 -0.41806,-2.04645 0.42593,-4.30671 2.24998,-5.40325 1.98784,-1.12054 4.45597,-1.15567 6.61132,-0.55761 2.49741,1.15056 4.05432,4.7715 2.2067,7.0995 -2.43052,3.00484 -6.27076,4.32387 -9.77173,5.65213 -3.97807,1.35804 -8.17602,3.01437 -10.71375,6.56308 -1.78285,2.23399 -2.5489,5.13984 -2.34115,7.97063 -0.0869,3.54431 0.43657,7.48476 3.19876,10.00669 3.12477,3.07822 7.78021,3.76915 11.98673,3.45087 3.41816,-0.008 6.94562,-0.91905 9.50153,-3.297 0.73223,-1.07743 1.37054,0.43565 2.07053,0.83821 3.04782,2.64864 7.3782,2.17802 11.12044,2.1 3.30563,-0.0531 6.60495,-0.9315 9.61475,-2.14348 0.0518,-1.8888 -0.89064,-3.62622 -1.39695,-5.40255 -1.1208,-0.35252 -2.2665,0.17113 -3.35518,0.42789 -1.39727,-0.14263 -1.56938,-1.9546 -1.53398,-3.04896 -0.26434,-9.57747 -0.23143,-19.1636 -0.36906,-28.74076 -0.96253,-2.59757 -3.05105,-4.65218 -5.62235,-5.65234 -4.37872,-1.86969 -9.29348,-1.6817 -13.95509,-1.77348 z m 2.27502,21.95625 c 0.2678,3.39412 0.007,6.82947 -0.0252,10.23673 -0.004,2.21199 -0.52409,4.69713 -2.29329,6.18505 -0.73454,0.56557 -1.90043,0.72357 -2.40109,-0.22071 -1.36354,-1.9405 -1.248,-4.49756 -1.35859,-6.76113 -0.0468,-3.27731 1.45822,-6.60774 4.2665,-8.40218 0.57407,-0.35823 1.18189,-0.85541 1.81169,-1.03776 z"
         id="path14863-2-7" />
      <path
         style="fill:#b7b7b7;fill-opacity:1"
         d="m 520.65625,602.34766 c -8.48047,1.03292 -17.51642,0.77889 -25.65625,2.41015 0,28.58073 0,57.16146 0,85.74219 10.38319,1.16697 21.66437,0.16598 32.39258,0.5 1.77956,-20.39102 -0.2101,-41.8457 2.17773,-62.45508 0.98209,-5.37352 4.34031,-13.98055 11.35547,-11.82812 2.35362,5.54586 -0.17203,12.08671 -1.70703,17.70898 6.60993,1.34454 14.58002,-0.17372 21.71094,0.0742 3.28815,-7.92461 4.52987,-17.85484 1.58398,-26.19727 -6.72243,-10.22031 -22.66414,-7.04875 -29.34375,1.70313 -1.2928,0.96497 -2.90271,5.34189 -4.20898,4.07812 -1.35695,-3.98363 -0.0728,-8.66356 -1.60742,-12.33007 -2.23243,0.19791 -4.46485,0.39583 -6.69727,0.59375 z"
         id="path35488-3"
         transform="scale(0.26458333)" />
      <path
         style="fill:#b7b7b7;fill-opacity:1"
         d="m 614.71875,601.29492 c -22.03958,-0.2116 -41.57813,18.86698 -42.49573,40.74368 -1.51323,14.63664 0.59706,31.52601 12.99964,41.17624 12.73102,10.17653 30.14501,9.4071 45.4414,7.85938 13.74721,-1.75982 24.96968,-15.00157 24.17188,-28.62695 -3.48634,-3.9e-4 -8.54015,-3.73783 -11.63282,-1.4629 -1.92612,7.3753 -6e-4,17.9174 -8.49414,21.6836 -9.94456,5.78652 -24.17381,-0.44685 -25.79687,-12.07813 -1.83279,-6.68447 -3.07066,-13.59549 -2.9082,-20.58984 16.16536,0 32.33073,0 48.49609,0 2.26725,-17.0673 -4.83113,-38.66708 -22.11328,-45.80469 -5.62873,-2.09987 -11.66508,-3.07032 -17.66797,-2.90039 z m 2.8418,7.72461 c 7.69691,1.70898 7.70868,11.77174 8.77734,18.07031 -0.1,4.11286 1.98772,10.51794 -0.0703,12.91016 -6.83854,0 -13.67708,0 -20.51563,0 1.41578,-9.85102 -0.24211,-22.01963 7.25586,-29.76172 1.30392,-0.95262 2.95487,-1.33494 4.55274,-1.21875 z"
         id="path35527-3"
         transform="scale(0.26458333)" />
      <path
         style="fill:#b7b7b7;fill-opacity:1"
         d="m 708.42969,601.5957 c -12.22539,0.0525 -27.89937,1.00736 -34.79883,12.81055 -2.03005,4.4131 -1.95195,9.80014 -1.22852,14.30859 4.39619,-0.0892 9.74741,3.75282 13.82422,1.35938 1.16931,-6.13136 -2.5266,-14.91974 4.375,-18.91797 6.2455,-2.70246 13.68448,-2.81185 20.25,-1.3418 5.11924,2.77873 7.29119,8.56907 5.97852,14.10547 -1.03117,7.99672 -10.85205,10.02964 -16.85547,13.26563 -11.9543,5.08499 -28.27206,8.26077 -32.94727,22.24609 -3.02595,10.92387 -0.14127,25.42743 11.78321,29.5918 12.86442,5.41915 29.47385,3.50356 39.40625,-6.76953 3.90571,1.06361 5.64361,6.39577 9.97461,7.36718 10.74878,3.37854 22.64422,1.54241 33.25195,-1.51562 3.15734,-1.90807 0.71833,-8.90964 -3.29688,-6.53125 -4.23458,0.57116 -8.56281,-1.60715 -6.93814,-6.5204 -0.9171,-19.83546 0.23384,-39.85412 -2.27279,-59.5753 -2.04894,-8.60169 -12.28813,-11.48519 -19.91797,-12.94336 -6.80941,-0.99039 -13.72233,-0.96487 -20.58789,-0.93946 z m 8.33984,36.73633 c 0.32121,11.53812 0.65147,23.39968 -0.99219,34.83789 -1.32638,6.37594 -11.09723,10.52932 -14.6914,3.74219 -3.39434,-8.13751 -2.49568,-17.89902 0.44922,-25.98438 4.08537,-5.20691 9.56261,-9.40088 15.19726,-12.83203 z"
         id="path35566-3"
         transform="scale(0.26458333)" />
      <path
         style="fill:#b7b7b7;fill-opacity:1"
         d="m 845.21484,571.34766 c -8.318,0.92197 -17.19332,0.11127 -25.21484,1.15234 0,13.03841 0,26.07682 0,39.11523 -6.61664,-7.65456 -16.91459,-12.47317 -27.05273,-9.76367 -11.71,1.61938 -20.50842,11.30265 -23.17969,22.48828 -4.88704,18.04095 -4.85394,38.51495 3.90039,55.38282 7.31144,12.88424 25.33556,15.26491 37.89258,9.39843 3.02601,-1.57328 5.72001,-3.68579 8.43945,-5.72265 -2.23353,7.66901 2.99112,8.73179 9.5,7.60156 8.09344,-0.34346 16.75556,0.68601 24.5,-0.5 0,-39.76563 0,-79.53125 0,-119.29688 -2.4163,-1.07202 -6.01333,0.2899 -8.78516,0.14454 z m -34.60937,42.07617 c 8.56319,0.36457 9.41889,10.81246 9.86914,17.35742 0.48652,14.3043 1.12221,28.93004 -0.90039,43.12891 -1.12801,6.14412 -8.50991,7.31318 -13.31836,5.03515 -5.93372,-5.06457 -3.5937,-14.13577 -4.7961,-20.99597 -0.13409,-13.37939 -0.98467,-27.12745 2.29219,-40.18762 1.2262,-2.60642 3.96109,-4.37662 6.85352,-4.33789 z"
         id="path35605-9"
         transform="scale(0.26458333)" />
      <path
         style="fill:#b7b7b7;fill-opacity:1"
         d="m 911.54102,601.26562 c -20.1276,-0.15296 -37.59797,16.19471 -41.09375,35.61329 -3.64231,17.5001 -0.22272,39.6781 16.65039,49.20898 13.53924,7.56911 30.01774,6.57863 44.80859,4.12695 11.45043,-3.05588 20.43366,-14.36367 20.86523,-26.1289 -2.22647,-3.57271 -7.82739,-3.44087 -11.56445,-3.48633 -2.501,5.42352 -0.21332,12.41094 -4.13672,17.58594 -6.47618,10.15979 -24.35286,8.63234 -28.74414,-2.80469 -3.78223,-7.88786 -3.92798,-16.83344 -4.58594,-25.38086 16.34759,-0.34146 33.25814,0.67242 49.25977,-0.50195 -0.17741,-10.87269 -2.02341,-22.31729 -7.33789,-31.90235 -7.08613,-11.61909 -20.99865,-16.72575 -34.12109,-16.33008 z m 2.98632,7.75586 c 7.71662,1.69299 8.10966,11.59257 9.32618,17.93555 0.56205,4.32304 0.81009,8.68617 1.18945,13.04297 -7.10352,0 -14.20703,0 -21.31055,0 1.28234,-9.72177 -0.31826,-21.27079 6.17578,-29.4375 1.22535,-1.16347 2.94655,-1.6962 4.61914,-1.54102 z"
         id="path35644-6"
         transform="scale(0.26458333)" />
      <path
         style="fill:#b7b7b7;fill-opacity:1"
         d="m 995.20508,602.33398 c -8.99431,1.11924 -18.54831,0.81757 -27.20508,2.45118 0,28.57161 0,57.14323 0,85.71484 10.7531,1.16512 22.4035,0.16393 33.5,0.5 1.5068,-20.38602 -0.6506,-41.72869 1.498,-62.39063 0.5389,-5.12785 3.5874,-13.99236 10.2579,-12.37695 5.359,3.68374 0.8038,11.35515 0.061,16.27539 -0.5526,3.96061 5.8744,1.88266 8.0078,2.48804 4.8658,-1.20276 14.333,3.37039 14.3923,-4.25429 2.4398,-8.65456 4.6034,-21.487 -4.6267,-26.95836 -9.128,-4.61071 -20.3218,-0.19445 -25.8524,7.94049 -4.4652,7.37488 -3.0137,-1.55841 -3.2222,-6.11427 1.3207,-6.07888 -3.1258,-3.09972 -6.81012,-3.27544 z"
         id="path35683-7"
         transform="scale(0.26458333)" />
      <path
         style="fill:#00ffbf;fill-opacity:1"
         d="m 545.12695,259.00781 c -39.11665,0.69407 -75.62563,21.01783 -103.07854,47.85129 -9.37383,10.01202 -19.99658,19.86003 -25.20857,32.80301 -1.69413,3.38576 -1.30126,10.90774 4.22852,9.04492 12.6509,-6.04155 22.56384,-16.6105 34.27352,-24.20902 26.87544,-18.96076 57.91144,-37.51414 92.02726,-34.82809 32.81857,3.06421 60.88298,22.93181 86.03906,42.74414 16.38076,13.05815 33.05425,26.14529 51.57032,36.05078 4.34631,2.65496 11.96514,1.63927 11.95898,-4.62109 -0.60692,-10.86103 -7.76784,-20.12814 -13.1525,-29.19002 -14.24553,-21.60882 -36.69635,-35.83411 -57.90219,-49.80803 -24.20537,-14.88677 -51.89104,-26.31922 -80.75586,-25.83789 z"
         id="path75190-8"
         transform="scale(0.26458333)" />
      <path
         style="fill:#00ffff;fill-opacity:1"
         d="m 574.03125,163.14062 c -65.26858,0.93833 -127.87181,32.13256 -172.48749,79.00088 -25.93073,25.50048 -46.29766,56.77998 -75.83655,78.48753 -20.93598,14.34472 -47.11944,17.19849 -71.88048,16.01428 -15.14916,0.13348 -30.45201,-1.98808 -45.52204,-0.32495 -4.21515,1.46119 -7.11485,7.16175 -3.16016,10.56055 10.21212,10.86326 25.87346,13.82981 39.76076,17.30295 18.92442,4.0014 38.68532,2.67686 57.61312,-0.58664 27.90191,-5.99374 52.87436,-21.88988 72.17172,-42.66124 28.54811,-28.37737 53.07354,-61.34026 87.01393,-83.77713 36.86141,-25.63166 81.98233,-39.99239 127.01487,-36.76533 36.55419,2.48703 72.18423,19.00617 97.5174,45.62606 29.63265,27.68055 50.8471,64.25147 85.53711,86.3789 29.86189,18.84342 68.26506,15.81051 100.0039,3.56055 35.71584,-14.3981 68.56781,-35.43217 105.17383,-47.67578 17.03513,-5.06561 38.16573,-5.61826 51.50783,8.05273 14.8494,13.83899 24.3976,31.93608 34.3613,49.3086 0.6835,2.33652 3.9531,4.18885 4.6641,0.90039 2.6105,-15.0132 -0.6149,-30.5506 -4.4771,-45.10033 -4.972,-17.61502 -17.4464,-32.65832 -32.7046,-42.42702 -23.0817,-13.58431 -51.71949,-9.35273 -75.73918,-0.74926 -36.93833,12.80044 -69.80247,35.29277 -107.01297,47.1678 -20.38654,5.68571 -44.74558,5.87676 -62.05446,-8.05721 -27.6107,-21.9974 -46.5637,-52.75463 -72.16211,-76.91601 -34.84321,-35.77538 -84.01969,-57.13874 -134.0332,-57.32422 -1.75658,-0.0193 -3.51298,-0.017 -5.26953,0.004 z"
         id="path75229-8"
         transform="scale(0.26458333)" />
      <path
         style="fill:#00aaff;fill-opacity:1"
         d="m 581.61914,76.210937 c -59.128,0.454331 -116.31393,22.78232 -165.4668,54.593753 -46.20804,30.33673 -87.0254,68.63289 -121.99363,111.34664 -13.19792,16.3881 -24.30207,34.43493 -35.69387,51.98344 -2.01252,5.02681 5.39511,6.34307 8.78125,4.87109 15.89718,-5.04983 25.92195,-19.61051 38.16086,-30.00977 48.30661,-46.97915 97.04253,-95.50669 157.49033,-126.80107 50.90851,-26.96189 111.12839,-40.43441 167.97748,-26.90368 36.036,8.0379 69.37769,26.62121 95.81079,52.31218 29.96241,27.24972 52.43904,61.69508 83.18164,88.12695 13.87971,11.48846 31.93275,19.46759 50.25774,16.85837 24.41139,-1.00017 43.99169,-17.57075 63.93253,-29.71534 22.67532,-14.74099 46.83942,-32.29394 75.08902,-31.70553 25.40722,0.007 46.84582,16.0281 69.19632,25.99722 2.3624,0.77907 7.8954,5.3778 8.5635,0.50864 0.077,-12.20407 -8.3909,-22.50681 -15.2989,-31.85742 -19.5571,-25.7243 -55.186,-34.77553 -85.79479,-27.23937 -39.37462,8.42528 -69.16301,37.52963 -104.29308,55.02452 -10.82428,6.03392 -24.89063,5.628 -34.62891,-2.35742 -22.73555,-18.30019 -40.03061,-42.22742 -59.9378,-63.37412 C 750.9085,138.0206 719.60454,112.17558 683.05163,96.325613 651.19555,82.056278 616.5152,75.176397 581.61914,76.210937 Z"
         id="path78386-1"
         transform="scale(0.26458333)" />
    </g>
  </g>
  <g
     id="layer6"
     style="display:none">
    <rect
       style="fill:#000000;fill-opacity:1;stroke-width:0.264583"
       id="rect87545"
       width="291.78024"
       height="207.37135"
       x="1.7524335"
       y="2.3365786" />
  </g>
  <g
     id="layer5"
     style="display:inline"
     transform="matrix(0.81952776,0,0,0.81952776,-4.2929338,19.489072)">
    <g
       id="g97930"
       style="fill:url(#linearGradient98142);fill-opacity:1"
       transform="translate(-7.9375004,-2.1716447)">
      <path
         style="display:inline;fill:url(#linearGradient880);fill-opacity:1;stroke-width:0.265;stroke-miterlimit:4;stroke-dasharray:none"
         d="m 138.39005,63.563947 c -10.34961,0.183639 -20.00928,5.560967 -27.27286,12.660654 -2.48016,2.649013 -5.29076,5.254636 -6.66977,8.679126 -0.44824,0.89582 -0.34429,2.88601 1.1188,2.39314 3.34721,-1.5985 5.97001,-4.39486 9.0682,-6.4053 7.11079,-5.016706 15.3224,-9.925621 24.34888,-9.214937 8.68324,0.810739 16.10862,6.067375 22.7645,11.309387 4.33407,3.45497 8.7456,6.91761 13.64464,9.53844 1.14997,0.70245 3.16578,0.43372 3.16415,-1.22267 -0.16058,-2.87365 -2.05524,-5.32557 -3.47993,-7.72319 -3.76913,-5.717334 -9.70924,-9.481109 -15.31995,-13.178375 -6.40434,-3.938791 -13.72951,-6.963627 -21.36666,-6.836275 z"
         id="path75190-8-5" />
      <path
         style="display:inline;fill:url(#linearGradient882);fill-opacity:1;stroke-width:0.265;stroke-miterlimit:4;stroke-dasharray:none"
         d="m 146.03765,38.199086 c -17.26898,0.248267 -33.83275,8.50174 -45.63732,20.902316 -6.860836,6.747002 -12.249586,15.023037 -20.065076,20.766495 -5.53932,3.79537 -12.46702,4.55043 -19.01838,4.23711 -4.00822,0.0353 -8.0571,-0.52601 -12.04437,-0.086 -1.11526,0.38661 -1.88248,1.89488 -0.83613,2.79415 2.70196,2.87424 6.84569,3.65914 10.52003,4.57807 5.00709,1.0587 10.23549,0.70825 15.24348,-0.15521 7.38238,-1.58585 13.98967,-5.7917 19.09543,-11.28746 7.553346,-7.508177 14.042366,-16.229608 23.022426,-22.16603 9.75292,-6.78171 21.69116,-10.58132 33.60602,-9.727493 9.67163,0.658026 19.09875,5.028715 25.80148,12.071895 7.84031,7.323812 13.4533,16.999867 22.63169,22.854418 7.90096,4.98565 18.0618,4.1832 26.45937,0.94206 9.44981,-3.8095 18.1419,-9.374761 27.82724,-12.614216 4.50721,-1.340276 10.09802,-1.486498 13.62811,2.130618 3.92891,3.661566 6.4552,8.449758 9.09143,13.046238 0.18084,0.6182 1.04593,1.1083 1.23404,0.23822 0.6907,-3.97224 -0.16269,-8.083175 -1.18456,-11.932792 -1.31551,-4.66064 -4.61603,-8.640847 -8.65309,-11.225482 -6.10704,-3.594182 -13.68412,-2.474576 -20.03933,-0.198241 -9.77326,3.386783 -18.46857,9.337878 -28.31385,12.479813 -5.39393,1.504344 -11.83893,1.554893 -16.41857,-2.131803 -7.30533,-5.820146 -12.31998,-13.957996 -19.09289,-20.350694 -9.21894,-9.46557 -22.23021,-15.117958 -35.46295,-15.167033 -0.46477,-0.0051 -0.92948,-0.0045 -1.39423,0.0011 z"
         id="path75229-8-4" />
      <path
         style="display:inline;fill:url(#linearGradient884);fill-opacity:1;stroke-width:0.265;stroke-miterlimit:4;stroke-dasharray:none"
         d="m 148.04528,15.198941 c -15.64429,0.120209 -30.77473,6.027823 -43.77976,14.444597 -12.225876,8.026594 -23.025466,18.159119 -32.277476,29.460465 -3.49195,4.336018 -6.42992,9.110909 -9.444,13.753952 -0.53248,1.33001 1.42745,1.67827 2.32337,1.288809 4.20613,-1.336101 6.85851,-5.188614 10.09672,-7.940085 12.78113,-12.4299 25.675836,-25.269478 41.669316,-33.549449 13.46954,-7.133667 29.40272,-10.698271 44.44404,-7.118265 9.53453,2.126694 18.35618,7.043528 25.34994,13.84093 7.92755,7.209822 13.8745,16.32349 22.00847,23.316922 3.67234,3.039655 8.44888,5.1508 13.29737,4.460444 6.45884,-0.264628 11.63946,-4.648928 16.91548,-7.862184 5.99951,-3.90022 12.39293,-8.544438 19.8673,-8.388754 6.72233,0.0019 12.39462,4.240768 18.30819,6.878431 0.62505,0.206129 2.08899,1.422876 2.26576,0.134577 0.0204,-3.228993 -2.22009,-5.954926 -4.04783,-8.428942 -5.17448,-6.806221 -14.6013,-9.201025 -22.69987,-7.207083 -10.41787,2.229189 -18.29938,9.929714 -27.59421,14.558571 -2.86393,1.596474 -6.58565,1.489075 -9.16224,-0.623734 -6.01544,-4.841926 -10.59143,-11.172672 -15.85854,-16.767736 -6.89089,-7.897659 -15.1734,-14.73582 -24.84469,-18.929458 -8.42859,-3.775428 -17.60443,-5.59573 -26.83734,-5.322008 z"
         id="path78386-1-3" />
    </g>
    <text
       xml:space="preserve"
       style="font-style:normal;font-weight:normal;font-size:100.898px;line-height:1.25;font-family:sans-serif;fill:#dedede;fill-opacity:1;stroke:none;stroke-width:0.302694"
       x="21.672474"
       y="149.95113"
       id="text34049"><tspan
         id="tspan34047"
         style="font-style:normal;font-variant:normal;font-weight:normal;font-stretch:normal;font-size:100.898px;font-family:'Roboto Condensed';-inkscape-font-specification:'Roboto Condensed, ';fill:#dedede;fill-opacity:1;stroke-width:0.302694"
         x="21.672474"
         y="149.95113">aurora</tspan></text>
    <text
       xml:space="preserve"
       style="font-style:normal;font-weight:normal;font-size:46.2961px;line-height:1.25;font-family:sans-serif;fill:#6f6f6f;fill-opacity:1;stroke:none;stroke-width:1.1574"
       x="125.85643"
       y="198.36435"
       id="text63804"
       transform="scale(1.0819908,0.92422227)"><tspan
         id="tspan63802"
         style="font-style:normal;font-variant:normal;font-weight:normal;font-stretch:normal;font-family:'Roboto Condensed';-inkscape-font-specification:'Roboto Condensed, ';fill:#6f6f6f;fill-opacity:1;stroke-width:1.1574"
         x="125.85643"
         y="198.36435">reader</tspan></text>
  </g>
  <g
     id="layer2"
     style="display:none">
    <path
       style="fill:#000000;fill-opacity:1;stroke-width:0.136798"
       d="m 11.350537,146.74838 c 0.04243,-0.76302 0.201292,-1.62184 0.43682,-2.36181 0.203551,-0.63953 0.543419,-1.7476 0.755234,-2.46237 0.211832,-0.71477 0.568832,-1.91518 0.793358,-2.66757 0.224509,-0.7524 0.60772,-2.04514 0.851566,-2.87277 0.243846,-0.82763 0.620723,-2.0896 0.837516,-2.80437 0.216785,-0.71477 0.584148,-1.94596 0.816372,-2.73597 0.232215,-0.79001 0.595832,-2.0212 0.808019,-2.73597 0.212196,-0.71478 0.554279,-1.8844 0.760168,-2.59917 0.205897,-0.71477 0.542133,-1.85362 0.74719,-2.53077 0.205056,-0.67716 0.572021,-1.90835 0.815486,-2.73598 0.518988,-1.76429 1.052512,-3.56676 1.619661,-5.47194 0.72578,-2.43809 1.250304,-4.21083 1.679745,-5.67713 0.231383,-0.79001 0.576991,-1.95965 0.768016,-2.59917 0.515489,-1.72574 1.069262,-3.59076 1.523187,-5.12995 0.93771,-3.179639 1.314339,-4.446239 1.667795,-5.608743 0.205872,-0.67716 0.570772,-1.90834 0.810863,-2.73597 0.240107,-0.82763 0.580215,-1.99726 0.755791,-2.59917 0.175586,-0.601917 0.389527,-1.356495 0.475424,-1.67684 l 0.156177,-0.582456 8.290737,0.03526 8.290738,0.03525 0.253076,0.889186 c 0.464599,1.632408 0.974728,3.47669 1.286516,4.65115 0.169775,0.63953 0.43775,1.55556 0.595495,2.03561 0.157745,0.48003 0.286817,0.97712 0.286817,1.104624 0,0.12749 0.156062,0.6889 0.346813,1.24757 0.19075,0.55866 0.429272,1.3851 0.530042,1.83653 0.10077,0.451439 0.319866,1.282489 0.486877,1.846779 0.69863,2.36048 1.429185,4.98151 1.773021,6.36113 0.13126,0.52668 0.367807,1.38851 0.525658,1.91518 0.843824,2.81545 1.030251,3.4734 1.142643,4.03272 0.06776,0.337 0.273264,1.1065 0.456742,1.70997 0.183478,0.60348 0.529901,1.80517 0.769831,2.67042 0.239931,0.86525 0.612282,2.16088 0.827463,2.87917 0.215172,0.71829 0.391227,1.39716 0.391227,1.50858 0,0.11143 0.156417,0.68151 0.347601,1.26685 0.191176,0.58535 0.400342,1.32235 0.464812,1.63779 0.06449,0.31544 0.252429,1.03523 0.417695,1.59951 0.165266,0.5643 0.475556,1.64159 0.689524,2.39398 0.368471,1.29566 0.491961,1.74352 1.018514,3.69356 0.205597,0.76143 0.570409,2.03594 1.311762,4.58275 0.164264,0.56429 0.374397,1.36456 0.466973,1.77838 0.09258,0.41381 0.327316,1.27564 0.521654,1.91518 1.024927,3.37293 1.190999,4.08636 1.190999,5.11655 v 1.03939 H 51.831418 42.55068 l -0.36529,-1.19699 c -0.200911,-0.65835 -0.363271,-1.25855 -0.3608,-1.33379 0.0027,-0.0752 -0.175993,-0.75239 -0.396577,-1.50478 -0.220594,-0.75239 -0.584839,-2.04514 -0.809446,-2.87277 -0.224606,-0.82763 -0.546651,-1.99726 -0.715664,-2.59917 -0.31192,-1.1109 -0.485761,-1.77763 -0.704459,-2.70178 l -0.1214,-0.51299 h -7.842056 -7.842057 l -0.212231,0.5814 c -0.116732,0.31976 -0.273707,0.79684 -0.348832,1.06019 -0.408005,1.43002 -1.053362,3.64557 -1.394665,4.78794 -0.213551,0.71478 -0.582952,1.97674 -0.820908,2.80437 -0.237946,0.82763 -0.572269,1.9357 -0.742938,2.46237 l -0.310317,0.95759 -4.139598,0.0362 -4.139606,0.0362 z m 25.685076,-19.0344 c 0,-0.066 -0.184674,-0.71993 -0.410396,-1.45321 -0.225713,-0.73329 -0.410405,-1.4334 -0.410414,-1.55581 -9e-6,-0.12241 -0.156142,-0.71505 -0.346963,-1.31696 -0.19083,-0.60191 -0.400342,-1.37141 -0.465591,-1.70998 -0.120692,-0.62625 -0.526632,-2.11794 -1.248497,-4.58785 -0.220718,-0.7552 -0.400528,-1.46313 -0.399572,-1.57318 8.86e-4,-0.11006 -0.148851,-0.72335 -0.332887,-1.36289 -0.184028,-0.63953 -0.527926,-1.9015 -0.764189,-2.80437 -0.794768,-3.03708 -1.140384,-4.18021 -1.231561,-4.07338 -0.111851,0.13105 -0.819455,2.38595 -0.819455,2.61133 0,0.0898 -0.177073,0.73258 -0.393486,1.4283 -0.390288,1.25464 -0.704503,2.3331 -1.5244,5.23209 -0.440514,1.55755 -0.915911,3.20436 -1.638874,5.67714 -1.30751,4.47208 -1.504789,5.18708 -1.504789,5.45362 0,0.11317 1.553818,0.15512 5.745537,0.15512 3.202002,0 5.745537,-0.0532 5.745537,-0.11997 z"
       id="path1604" />
    <path
       style="fill:#000000;fill-opacity:1;stroke-width:0.136798"
       d="m 73.013625,148.56768 c -2.253307,-0.45365 -3.865802,-1.06746 -4.993147,-1.90071 -0.377125,-0.27874 -1.2484,-1.13813 -1.686327,-1.66331 -0.40129,-0.48126 -1.107281,-1.87738 -1.328193,-2.62657 -0.711687,-2.41353 -0.660735,-0.93003 -0.709101,-20.64643 l -0.045,-18.34676 0.51633,-0.0853 c 0.283982,-0.0469 1.297501,-0.086 2.252263,-0.0868 1.665962,-0.002 4.322748,-0.18426 8.865947,-0.6101 2.923823,-0.27405 5.132813,-0.38822 5.465901,-0.28251 l 0.27964,0.0888 v 16.87981 c 0,17.03585 0.0375,18.50453 0.49435,19.35336 0.39017,0.72493 1.00117,1.23118 1.48594,1.23118 0.12094,0 0.62832,-0.19096 1.1275,-0.42434 0.80686,-0.37723 1.17363,-0.68347 2.15001,-1.79517 0.31097,-0.35407 1.14794,-2.06833 1.29989,-2.6624 0.0733,-0.2869 0.2835,-1.10644 0.46692,-1.82122 0.61806,-2.40844 0.67583,-3.75779 0.73622,-17.19382 l 0.0567,-12.61106 0.7082,-0.0715 c 0.38951,-0.0393 1.81627,-0.10241 3.17058,-0.14025 1.3543,-0.0378 4.12447,-0.22293 6.15593,-0.41134 2.031462,-0.18842 4.463052,-0.36003 5.403552,-0.38135 l 1.70997,-0.0388 0.0346,22.81115 0.0346,22.81115 h -8.618702 -8.61871 v -2.25718 c 0,-1.24144 -0.0324,-2.25717 -0.072,-2.25717 -0.0396,0 -0.34021,0.26163 -0.66801,0.5814 -1.16798,1.13932 -2.38071,2.08864 -3.27515,2.56377 -0.23694,0.12586 -0.61547,0.33054 -0.8412,0.45485 -0.91228,0.50242 -2.01358,0.90881 -3.431336,1.26621 -1.356327,0.3419 -1.757094,0.3799 -4.36617,0.41398 -1.962913,0.0256 -3.15439,-0.0192 -3.761959,-0.14151 z"
       id="path1643" />
    <path
       style="fill:#000000;fill-opacity:1;stroke-width:0.136798"
       d="m 114.73717,125.64517 v -22.29815 l 1.74419,-0.004 c 3.73304,-0.009 8.03543,-0.25982 10.36248,-0.60533 1.35829,-0.20167 2.93724,-0.34591 3.79616,-0.3468 l 1.47059,-0.002 v 2.01391 2.01391 l 0.99179,-1.03854 c 0.85561,-0.89596 2.39791,-2.16848 2.6282,-2.16848 0.0412,0 0.39551,-0.15467 0.78737,-0.34371 0.39184,-0.18903 1.08409,-0.40403 1.53831,-0.47776 1.02834,-0.16693 4.0983,-0.17175 5.22876,-0.008 2.50613,0.36254 4.44222,2.13429 5.20339,4.76169 0.29751,1.02694 0.35598,1.54941 0.40958,3.6603 0.0614,2.41736 0.0536,2.50489 -0.42781,4.78795 -0.4121,1.95451 -0.60957,2.80247 -1.12291,4.82215 -0.0339,0.13362 -1.38989,0.17099 -6.20369,0.17099 h -6.16023 v -0.95256 c 0,-0.98903 0.38721,-2.85666 0.83771,-4.04058 0.53749,-1.41255 0.66165,-3.01934 0.29067,-3.76196 -0.37673,-0.75413 -0.78284,-0.66097 -1.49087,0.342 -0.31868,0.45143 -0.66916,1.06703 -0.77883,1.36798 -0.10968,0.30096 -0.32341,0.88577 -0.47497,1.29958 -0.15154,0.41382 -0.38384,1.12176 -0.51621,1.5732 -0.66866,2.28043 -0.63977,1.57989 -0.70115,16.99721 l -0.0578,14.53484 h -8.67733 -8.67733 z"
       id="path1682" />
    <path
       style="fill:#000000;fill-opacity:1;stroke-width:0.136798"
       d="m 168.3063,148.68819 c -4.91943,-0.66979 -8.42916,-2.1102 -11.31139,-4.64226 -0.68783,-0.60427 -2.31257,-2.43925 -2.31257,-2.61183 0,-0.0593 -0.11777,-0.23495 -0.26171,-0.39028 -0.23562,-0.25425 -0.43646,-0.59165 -1.14523,-1.92399 -0.81706,-1.53587 -1.6113,-4.17006 -2.10359,-6.97673 -0.36695,-2.09209 -0.38393,-2.38214 -0.38453,-6.56633 -6.1e-4,-4.15193 0.0187,-4.49035 0.37479,-6.56632 0.81665,-4.76132 2.12679,-7.8652 4.47215,-10.59509 1.02229,-1.1899 2.92037,-2.87956 3.23474,-2.87956 0.0442,0 0.2437,-0.11363 0.44341,-0.25251 1.95176,-1.35723 6.13364,-2.66861 9.25502,-2.90224 1.94042,-0.14523 6.82225,-0.14486 8.7551,7e-4 1.71486,0.12912 4.1403,0.65734 5.74554,1.25127 1.77476,0.65666 4.17344,1.92213 4.65775,2.45729 0.13255,0.14646 0.28872,0.26631 0.34704,0.26631 0.0584,0 0.55884,0.44629 1.11225,0.99179 1.51485,1.49314 2.52769,2.91816 3.47596,4.89054 0.508,1.0566 1.28248,3.05767 1.28248,3.31358 0,0.0996 0.15653,0.79523 0.34785,1.54591 1.00236,3.9329 0.99315,12.67003 -0.018,17.02512 -0.75351,3.2456 -2.34548,6.62517 -3.97564,8.4398 -0.2144,0.23868 -0.45753,0.51569 -0.54028,0.6156 -0.54575,0.65892 -1.96611,1.77955 -3.6115,2.84944 -1.79099,1.16455 -5.60854,2.30311 -9.16191,2.73248 -1.62076,0.19584 -7.03886,0.15047 -8.67778,-0.0726 z m 5.01578,-5.55161 c 0.55747,-0.29835 1.15392,-1.01386 1.63785,-1.96477 0.56648,-1.11312 1.1874,-3.04121 1.33675,-4.15082 0.0573,-0.42566 0.2491,-1.78966 0.42624,-3.03111 0.30073,-2.10739 0.322,-2.67019 0.32051,-8.4815 -0.002,-6.46477 -0.004,-6.49018 -0.67863,-10.94389 -0.37517,-2.47393 -1.25753,-4.83321 -2.21578,-5.9246 -0.82375,-0.9382 -1.41908,-1.01613 -2.22188,-0.29086 -1.00907,0.91164 -1.78286,2.72863 -2.39188,5.61656 -0.61238,2.90383 -0.98068,9.93627 -0.76654,14.63658 0.31239,6.85659 0.61072,8.8333 1.84843,12.24739 0.24645,0.67983 1.43364,2.11898 1.90538,2.30977 0.39096,0.15812 0.46555,0.156 0.79955,-0.0228 z"
       id="path1721" />
    <path
       style="fill:#000000;fill-opacity:1;stroke-width:0.136798"
       d="m 201.05703,125.64517 v -22.29815 l 1.81258,-0.006 c 3.75816,-0.0121 7.82032,-0.25271 10.1573,-0.60157 1.36697,-0.20407 2.93175,-0.34778 3.79615,-0.34867 l 1.47058,-0.002 v 1.99498 c 0,1.09724 0.053,1.97446 0.11774,1.94938 0.0648,-0.0251 0.37424,-0.3437 0.68774,-0.70804 1.40451,-1.63228 3.55481,-2.97657 5.18961,-3.24435 1.00544,-0.16469 4.07769,-0.16032 5.23739,0.007 1.89977,0.27485 3.74197,1.58666 4.63332,3.29931 0.63794,1.22578 0.96043,3.0913 0.96043,5.55594 0,2.19412 -0.20303,3.72584 -0.82088,6.19316 -0.21667,0.86525 -0.47512,1.91175 -0.57433,2.32557 l -0.18036,0.7524 -6.18894,0.0356 -6.18894,0.0356 v -0.98765 c 0,-1.0042 0.35167,-2.53858 1.05771,-4.61492 0.19021,-0.55937 0.37459,-1.39042 0.40975,-1.84678 0.0548,-0.71143 0.0174,-0.89802 -0.26188,-1.30854 -0.4231,-0.6218 -0.83656,-0.68564 -1.16165,-0.17938 -0.13583,0.21152 -0.33978,0.48978 -0.45324,0.61835 -0.29367,0.33282 -1.12921,2.29811 -1.55816,3.66498 -0.81639,2.60151 -0.81022,2.47432 -0.86663,17.88641 l -0.0517,14.12445 h -8.61179 -8.6118 z"
       id="path1760" />
    <path
       style="fill:#000000;fill-opacity:1;stroke-width:0.136798"
       d="m 247.36333,148.75551 c -0.45143,-0.0695 -1.3096,-0.24997 -1.90702,-0.40092 -0.59744,-0.15095 -1.16588,-0.27446 -1.2632,-0.27446 -0.0974,0 -0.55823,-0.18467 -1.0242,-0.4104 -0.46596,-0.22571 -0.89351,-0.41039 -0.9501,-0.41039 -0.21163,0 -1.7207,-1.09345 -2.40219,-1.74059 -0.69425,-0.65927 -1.96078,-2.36694 -1.96078,-2.64374 0,-0.0775 -0.12548,-0.38687 -0.27885,-0.68748 -0.15335,-0.30061 -0.44383,-1.23694 -0.64551,-2.08072 -0.33771,-1.41298 -0.36701,-1.76652 -0.37095,-4.47534 -0.004,-2.65742 0.0263,-3.05336 0.31265,-4.10396 0.3633,-1.33288 0.9331,-2.61899 1.62673,-3.67173 0.44477,-0.67505 2.44323,-2.78449 2.93669,-3.09979 0.11775,-0.0752 0.69231,-0.45999 1.27679,-0.855 0.58448,-0.39501 1.11301,-0.71819 1.17451,-0.71819 0.0615,0 0.42505,-0.18468 0.80786,-0.41039 0.38282,-0.22572 0.75734,-0.4104 0.83226,-0.4104 0.0749,0 0.36951,-0.11901 0.65463,-0.26446 0.28512,-0.14546 1.31379,-0.52211 2.28593,-0.83701 0.97214,-0.31489 2.12554,-0.71913 2.56313,-0.89832 0.43759,-0.17918 0.85129,-0.32579 0.91933,-0.32579 0.15359,0 1.33809,-0.525 2.86781,-1.27109 2.70406,-1.31885 4.71955,-3.16753 5.3106,-4.87105 0.58627,-1.68974 -0.55405,-4.37722 -2.35913,-5.55996 -1.08688,-0.71214 -3.49091,-0.93372 -5.27704,-0.48636 -1.73187,0.43376 -2.45288,0.87629 -3.36947,2.06808 -1.18612,1.54227 -1.30743,3.59333 -0.3773,6.37996 0.22179,0.6645 0.3268,1.29088 0.3268,1.94937 v 0.97027 h -0.97839 c -0.5531,0 -1.87619,-0.18277 -3.04377,-0.42045 -4.41507,-0.89877 -5.34017,-1.09876 -5.41147,-1.1699 -0.0407,-0.0406 -0.0945,-1.62492 -0.1198,-3.52085 -0.0495,-3.71476 -0.0916,-3.38972 0.71114,-5.49069 0.51423,-1.34586 2.1948,-3.02178 3.98422,-3.97323 0.30764,-0.16357 0.68013,-0.36191 0.82773,-0.44074 1.23332,-0.65868 5.0199,-1.61457 7.24226,-1.82824 2.7032,-0.25991 9.38462,-0.29611 12.10952,-0.0656 7.49665,0.63412 11.76837,3.06203 12.85155,7.30443 0.27449,1.07507 0.28111,1.42624 0.28111,14.93479 0,15.65979 -0.01,15.48747 0.92712,16.45566 0.58177,0.60123 0.86148,0.63168 1.60365,0.17457 0.44422,-0.27361 0.73021,-0.33783 1.51985,-0.3413 l 0.97266,-0.004 0.27278,0.78659 c 0.15004,0.43262 0.46644,1.30393 0.70313,1.93623 0.31056,0.82967 0.43011,1.38175 0.42952,1.98358 l -8.6e-4,0.83393 -1.19618,0.42768 c -3.81128,1.36265 -6.29813,1.76448 -10.84047,1.75158 -3.70385,-0.0105 -5.12877,-0.21318 -6.56275,-0.93343 -0.39053,-0.19615 -0.77123,-0.35664 -0.84599,-0.35664 -0.24179,0 -1.71757,-1.21073 -2.16612,-1.77707 l -0.4358,-0.55025 -0.84281,0.71983 c -0.46353,0.3959 -1.03177,0.85163 -1.26274,1.01272 -0.64161,0.44752 -2.30433,1.25741 -2.88879,1.4071 -0.28689,0.0734 -1.01411,0.26684 -1.61602,0.42968 -0.93438,0.2528 -1.53442,0.30227 -4.10396,0.33835 -1.65526,0.0232 -3.37892,-0.0146 -3.83035,-0.0841 z m 9.6545,-7.80812 c 0.97915,-0.29337 2.0263,-1.52372 2.48434,-2.91902 0.64565,-1.9667 0.68031,-2.35065 0.75051,-8.31344 0.0663,-5.62742 0.0632,-5.71134 -0.20416,-5.71134 -0.14929,0 -0.35204,0.0971 -0.45058,0.21587 -0.0985,0.11873 -0.46004,0.35831 -0.80334,0.53241 -0.3433,0.1741 -0.74145,0.44631 -0.88479,0.60492 -0.14332,0.15861 -0.32373,0.28838 -0.40089,0.28838 -0.26113,0 -1.75031,1.70477 -2.22065,2.54213 -1.15822,2.06201 -1.47521,3.8652 -1.28455,7.30736 0.16351,2.95226 0.8286,4.7746 1.98819,5.4476 0.33399,0.19384 0.39505,0.19414 1.02592,0.005 z"
       id="path1799" />
    <path
       style="fill:#000000;fill-opacity:1;stroke-width:0.136798"
       d="M 130.8794,171.19907 V 159.708 l 2.08617,-0.004 c 1.1474,-0.003 2.79411,-0.0904 3.65937,-0.19574 0.86525,-0.1053 1.92715,-0.23498 2.35977,-0.28816 l 0.78659,-0.0967 v 1.86561 c 0,1.02609 0.0557,1.86562 0.1238,1.86562 0.0681,0 0.2935,-0.28958 0.50091,-0.64349 0.54504,-0.93004 1.69902,-2.01654 2.68868,-2.53145 0.80166,-0.4171 0.95023,-0.44702 2.22695,-0.44857 1.2303,-0.002 1.44439,0.037 2.12713,0.38302 0.41754,0.21158 0.93281,0.60232 1.14506,0.86832 0.99989,1.25312 1.0446,3.87859 0.11671,6.85231 l -0.2241,0.71819 h -2.91618 c -2.4756,0 -2.91619,-0.0304 -2.91619,-0.20125 0,-0.1107 0.18468,-0.70729 0.4104,-1.32577 0.51872,-1.42136 0.58044,-2.95408 0.13679,-3.39772 -0.41885,-0.41885 -1.22815,-0.36902 -1.66625,0.1026 -0.61168,0.65848 -1.04415,1.56911 -1.40389,2.95615 l -0.34982,1.34875 v 7.57735 7.57734 h -4.44596 -4.44594 z"
       id="path1838" />
    <path
       style="fill:#000000;fill-opacity:1;stroke-width:0.136798"
       d="m 160.76987,183.14849 c -0.22571,-0.0341 -1.05106,-0.21684 -1.83409,-0.40609 -2.23478,-0.54009 -4.00636,-1.52978 -5.17707,-2.89215 -1.5464,-1.79958 -2.2439,-3.59474 -2.47386,-6.36699 -0.34079,-4.10835 0.40238,-7.15223 2.4514,-10.04039 0.40812,-0.57525 2.56293,-2.64048 2.75502,-2.64048 0.0562,0 0.39547,-0.17835 0.75399,-0.39634 1.74871,-1.06325 4.05707,-1.46896 7.08163,-1.24465 5.17985,0.38416 8.30418,3.86494 8.90172,9.9173 0.104,1.05335 0.19044,2.11525 0.1921,2.35977 l 0.003,0.4446 h -6.56633 c -6.16328,0 -6.5662,0.0147 -6.56417,0.2394 0.0107,1.18479 0.33424,3.71936 0.61038,4.78178 0.77647,2.98752 2.14571,4.26196 4.59344,4.27543 1.46878,0.008 2.54192,-0.37708 3.27923,-1.17696 0.94013,-1.01991 1.12919,-1.61298 1.20016,-3.76459 l 0.0617,-1.86927 0.63263,0.19922 c 0.34794,0.10956 1.08934,0.31989 1.64753,0.4674 0.5582,0.1475 1.0455,0.29878 1.08289,0.33617 0.0374,0.0374 -0.0316,0.62242 -0.1534,1.30006 -0.15718,0.87482 -0.38408,1.54481 -0.78254,2.31068 -1.00369,1.92924 -2.40224,3.00851 -4.85541,3.74698 -1.27902,0.38502 -1.53259,0.41406 -3.89876,0.44648 -1.39192,0.019 -2.71545,0.007 -2.94117,-0.0274 z m 5.08709,-15.67717 c -0.13599,-3.1022 -0.59872,-4.94971 -1.46573,-5.85209 -0.44366,-0.46177 -0.60696,-0.54324 -1.08885,-0.54324 -1.51424,0 -2.30583,1.27368 -2.72064,4.37755 -0.18573,1.38971 -0.30665,3.76878 -0.19712,3.8783 0.0489,0.0489 1.31936,0.0889 2.82332,0.0889 h 2.73447 z"
       id="path1877" />
    <path
       style="fill:#000000;fill-opacity:1;stroke-width:0.136798"
       d="m 182.38403,183.09846 c -3.74751,-0.39813 -5.88567,-2.26597 -6.21274,-5.42728 -0.25978,-2.51097 0.25824,-4.11691 1.82306,-5.65172 0.4192,-0.41117 0.83967,-0.77935 0.93436,-0.81818 0.0947,-0.0388 0.43257,-0.23989 0.75084,-0.44679 0.31827,-0.20691 0.62606,-0.37658 0.68399,-0.37705 0.0579,-4.3e-4 0.28999,-0.0974 0.51571,-0.21548 0.22572,-0.11806 1.39535,-0.53978 2.59918,-0.93715 4.62575,-1.52695 6.36113,-2.81524 6.36113,-4.72234 0,-1.4859 -0.52916,-2.46147 -1.68146,-3.10004 -0.67536,-0.37425 -0.79885,-0.39484 -2.36789,-0.39484 -1.6221,0 -1.67422,0.01 -2.59281,0.4788 -0.82095,0.41929 -0.98498,0.56998 -1.32,1.2126 -0.47595,0.91297 -0.51269,2.09519 -0.10896,3.50695 0.15048,0.52619 0.2736,0.96232 0.2736,0.96918 0,0.0695 -4.06622,-0.80882 -4.15501,-0.89741 -0.0657,-0.0656 -0.12461,-0.75532 -0.1309,-1.53282 -0.01,-1.2182 0.033,-1.50536 0.30971,-2.07703 0.82426,-1.7027 2.79499,-2.82132 5.89138,-3.34406 1.33476,-0.22534 4.60502,-0.30683 6.83993,-0.17045 4.02417,0.24556 6.62476,1.44483 7.42027,3.42184 0.30055,0.74697 0.306,0.8768 0.37531,8.94477 l 0.0703,8.1868 0.41039,0.32822 c 0.47388,0.37901 1.19958,0.43222 1.90048,0.13936 l 0.45529,-0.19024 0.27902,0.63899 c 0.49977,1.14458 0.47483,1.25184 -0.35716,1.53609 -1.26071,0.43071 -3.83089,0.83588 -5.35559,0.84427 -1.4544,0.008 -3.0682,-0.27623 -3.87273,-0.68207 -0.58934,-0.2973 -1.41117,-1.09245 -1.59982,-1.54789 -0.0932,-0.2249 -0.22101,-0.40891 -0.2841,-0.40891 -0.0631,0 -0.40263,0.30779 -0.75452,0.68399 -0.35189,0.3762 -0.69019,0.68399 -0.75179,0.68399 -0.0616,0 -0.33211,0.14938 -0.60113,0.33192 -0.63307,0.42962 -2.18219,0.90589 -3.40989,1.04835 -1.08226,0.12559 -1.01631,0.12599 -2.33748,-0.0144 z m 5.26675,-3.14352 c 0.6856,-0.19262 1.27246,-0.77565 1.65312,-1.64234 0.32314,-0.73571 0.33141,-0.84867 0.37334,-5.09575 0.0314,-3.18597 0.002,-4.34335 -0.11311,-4.34335 -0.0858,0 -0.33008,0.17406 -0.54282,0.38681 -0.21275,0.21274 -0.82323,0.65049 -1.35663,0.97278 -1.03738,0.62679 -1.56977,1.15212 -2.11725,2.08914 -0.45147,0.7727 -0.52347,1.12395 -0.59701,2.9124 -0.15463,3.7608 0.7136,5.27848 2.70036,4.72031 z"
       id="path1916" />
    <path
       style="fill:#000000;fill-opacity:1;stroke-width:0.136798"
       d="m 208.78585,182.98263 c -2.97087,-0.85114 -4.66276,-2.92 -5.48466,-6.70666 -1.07887,-4.97057 -0.43573,-10.87897 1.50917,-13.86443 0.91938,-1.41125 1.80414,-2.12891 3.45382,-2.80148 1.1469,-0.46758 1.23382,-0.48149 3.0563,-0.48895 1.87077,-0.008 1.87856,-0.006 2.88552,0.4743 0.71985,0.34363 1.27473,0.74819 1.93307,1.40941 l 0.9234,0.92742 v -5.26302 -5.26302 l 3.31736,-0.0949 c 3.28161,-0.0938 5.072,-0.19196 5.40354,-0.29613 0.13612,-0.0428 0.17099,3.18168 0.17099,15.81061 v 15.86434 h -4.43996 -4.43995 l -0.0402,-0.99143 -0.0402,-0.99142 -0.5793,0.56298 c -0.70282,0.68302 -2.1696,1.47442 -3.25821,1.75797 -1.08381,0.2823 -3.30708,0.25908 -4.37071,-0.0456 z m 6.93565,-3.09714 c 0.29907,-0.11832 0.88134,-0.88302 1.17169,-1.53875 0.19444,-0.43917 0.23441,-1.22117 0.27786,-5.43768 0.0279,-2.70861 -0.01,-5.68846 -0.0843,-6.6219 -0.12009,-1.50814 -0.1861,-1.79758 -0.59267,-2.59916 -0.53453,-1.05381 -1.03152,-1.38057 -2.09912,-1.3801 -0.91459,4.4e-4 -1.51319,0.37608 -1.86442,1.17009 -0.41601,0.94046 -0.55141,3.39203 -0.49631,8.98607 0.0394,4.00117 0.0904,5.09996 0.26384,5.68712 0.24424,0.82673 0.91506,1.60794 1.54627,1.80072 0.42879,0.13096 1.47163,0.0941 1.87723,-0.0664 z"
       id="path1955" />
    <path
       style="fill:#000000;fill-opacity:1;stroke-width:0.136798"
       d="m 239.49741,183.15108 c -1.22211,-0.22519 -3.33113,-0.81695 -3.96714,-1.11311 -2.64864,-1.23334 -4.2886,-3.22512 -5.15108,-6.25614 -0.36932,-1.29789 -0.38892,-1.50469 -0.38247,-4.03555 0.006,-2.49967 0.0302,-2.74508 0.37899,-3.89877 1.32069,-4.36871 3.71395,-6.97148 7.61978,-8.28681 1.24992,-0.42092 1.37821,-0.4367 3.5539,-0.43703 2.3046,-3.6e-4 2.83764,0.0808 4.44596,0.6767 2.27838,0.84422 3.86972,2.43347 4.97569,4.96918 0.44112,1.0114 1.05446,3.9853 1.17788,5.71134 l 0.10027,1.40218 h -6.60123 -6.60124 l 0.093,1.43757 c 0.35369,5.47085 1.89816,7.86767 5.06832,7.86541 1.46637,-8.8e-4 2.48776,-0.34552 3.22738,-1.08847 0.93387,-0.93808 1.25141,-1.87729 1.33194,-3.93955 0.0495,-1.26885 0.10954,-1.67579 0.24706,-1.67579 0.0999,0 0.66189,0.1486 1.24887,0.33023 0.58698,0.18161 1.27227,0.37227 1.52285,0.42368 l 0.45561,0.0935 -0.0942,0.68465 c -0.13243,0.9629 -0.68689,2.64643 -1.11462,3.38444 -0.51768,0.8932 -1.79525,2.0838 -2.79354,2.60335 -0.47213,0.24572 -1.38564,0.60088 -2.03003,0.78926 -1.03579,0.30279 -1.47288,0.34714 -3.77077,0.38263 -1.42954,0.0221 -2.75306,0.0118 -2.94117,-0.0229 z m 5.11296,-15.13256 c -0.25899,-4.91136 -1.05448,-6.94253 -2.71898,-6.94253 -1.6447,0 -2.4453,1.98555 -2.74416,6.80572 l -0.0954,1.53898 h 2.81625 2.81624 z"
       id="path1994" />
    <path
       style="fill:#000000;fill-opacity:1;stroke-width:0.136798"
       d="M 256.18683,171.19907 V 159.708 h 2.01862 c 1.73884,0 3.46671,-0.13818 6.22349,-0.49769 l 0.64979,-0.0848 v 1.95626 1.95625 l 0.43264,-0.67325 c 1.26761,-1.97261 2.95205,-3.09603 4.77063,-3.18174 1.24934,-0.0589 1.947,0.11368 2.82097,0.69777 1.54138,1.03013 2.02078,3.39297 1.21391,5.98308 -0.10546,0.33858 -0.26166,0.96956 -0.3471,1.40218 l -0.15533,0.78659 h -2.98749 -2.98749 l 0.46416,-1.47058 c 0.58766,-1.86193 0.6282,-2.89667 0.13289,-3.39198 -0.47076,-0.47076 -1.17325,-0.45414 -1.70905,0.0404 -0.54579,0.50376 -1.37947,2.46347 -1.52385,3.582 -0.0638,0.49398 -0.11795,4.26852 -0.1204,8.38786 l -0.004,7.48972 h -4.44595 -4.44595 z"
       id="path2033" />
    <path
       style="fill:#000000;fill-opacity:1;stroke-width:0.136798"
       d="m 181.70005,97.766211 c -0.84439,-0.29739 -2.74056,-1.411514 -5.60874,-3.295524 -2.79231,-1.83415 -3.26089,-2.1814 -5.7414,-4.254672 -1.12632,-0.941404 -2.14205,-1.783775 -2.25718,-1.871948 -0.11513,-0.08814 -0.60947,-0.492387 -1.09852,-0.898257 -0.48906,-0.405869 -1.44323,-1.145761 -2.12038,-1.644198 -0.67716,-0.498436 -1.38509,-1.023961 -1.57319,-1.167817 -0.62494,-0.477966 -3.19778,-2.164488 -4.40559,-2.887929 -6.00881,-3.599023 -10.86077,-5.211358 -15.68244,-5.211358 -7.92924,0 -16.6207,4.116274 -27.79144,13.16205 -2.92671,2.369969 -3.46343,2.706579 -4.31559,2.706579 -0.89856,0 -1.3032,-0.76958 -1.03493,-1.968318 0.45302,-2.024308 2.6963,-5.189761 6.092,-8.596324 5.51254,-5.530144 11.90541,-9.58232 18.61479,-11.799124 6.35901,-2.101028 13.08028,-2.118239 19.4945,-0.04987 3.86927,1.247691 8.34839,3.349605 11.76468,5.520807 3.41205,2.168509 6.51585,4.414934 8.95654,6.482408 1.55179,1.314507 4.1963,3.946863 4.64744,4.626067 0.18909,0.284699 0.73168,1.071671 1.20573,1.748821 1.98403,2.834033 3.40182,5.633803 3.57907,7.067723 0.25113,2.031564 -0.86498,2.986134 -2.72535,2.330914 z"
       id="path2072" />
    <path
       style="fill:#000000;fill-opacity:1;stroke-width:0.136798"
       d="M 69.046469,96.960491 C 64.427098,96.695367 58.3193,94.977837 55.760201,93.224367 c -0.68676,-0.47056 -1.62021,-1.38641 -1.840945,-1.80623 -0.570046,-1.084185 0.08424,-2.191413 1.533808,-2.595671 0.553118,-0.154246 3.230826,-0.0822 6.206283,0.166976 10.008174,0.838154 17.087042,-0.07193 22.366551,-2.875634 4.15394,-2.205926 7.43081,-5.238739 13.82365,-12.794067 2.10086,-2.482892 4.628892,-5.406963 5.617852,-6.497927 3.65177,-4.028473 7.87927,-7.919229 11.68017,-10.749793 9.0258,-6.721585 19.08001,-10.9024 29.95887,-12.457715 2.14559,-0.306748 3.15401,-0.371288 6.62563,-0.424029 4.34095,-0.0659 5.60178,0.01355 9.1746,0.578514 7.22227,1.142023 14.39218,4.056473 20.67822,8.405344 3.99237,2.762038 8.49856,7.007056 12.78981,12.048506 1.22269,1.436449 1.07491,1.259154 3.81231,4.573397 4.58899,5.555983 7.28885,8.320651 9.84675,10.083105 2.30219,1.586257 4.47255,2.44521 7.02332,2.779585 2.00836,0.263272 2.85164,0.26414 5.06494,0.0053 3.09112,-0.361588 5.75479,-1.126379 9.56282,-2.745677 2.00587,-0.852956 2.91759,-1.30021 11.31736,-5.551766 4.63657,-2.346805 6.03405,-2.994279 6.90085,-3.197272 0.5978,-0.139984 1.19335,-0.360959 1.32344,-0.49104 0.32523,-0.325243 0.65895,-0.491572 1.94902,-0.971433 2.6368,-0.980806 6.34598,-1.962886 8.70488,-2.304809 1.46926,-0.212967 5.64691,-0.216298 6.90832,-0.0053 5.59107,0.934291 9.9944,4.178396 13.01794,9.59086 0.99185,1.775474 1.85018,4.552518 2.46966,7.990323 0.5796,3.216423 0.63161,7.301603 0.0663,8.151893 -0.20445,0.30756 -0.66253,0.68051 -1.60513,-1.209147 -2.36065,-4.732444 -3.86912,-7.090118 -6.7222,-10.506451 -2.11195,-2.528893 -3.86977,-3.861728 -6.06385,-4.597793 -1.25437,-0.420822 -1.3781,-0.435872 -3.55676,-0.432692 -1.97297,0.0027 -2.46386,0.05102 -3.89876,0.382325 -3.17858,0.733939 -5.42246,1.527333 -9.71269,3.434262 -0.9262,0.411672 -5.38283,2.640708 -6.83993,3.421055 -5.27905,2.827215 -10.50471,5.318213 -13.40626,6.390575 -8.30931,3.070996 -16.16935,3.379276 -22.50922,0.882817 -4.41164,-1.737172 -7.93839,-4.315909 -12.59048,-9.206072 -0.75742,-0.796185 -4.15408,-4.777195 -5.59785,-6.560908 -4.74141,-5.857779 -9.05308,-10.313815 -12.51706,-12.93616 -5.26829,-3.988266 -10.91701,-6.505616 -17.28435,-7.702763 -2.67543,-0.503025 -4.12019,-0.620218 -7.64588,-0.620218 -4.29829,0 -7.50378,0.394257 -11.80017,1.451348 -2.08817,0.51377 -6.1446,1.821386 -7.00547,2.258251 -0.27916,0.141658 -0.5704,0.257558 -0.64722,0.257558 -0.0768,0 -0.91651,0.369356 -1.86598,0.820792 -0.94947,0.451436 -1.75524,0.820793 -1.7906,0.820793 -0.0913,0 -2.96436,1.58328 -3.94352,2.173203 -3.40994,2.054435 -7.40733,5.026534 -10.12334,7.526797 -2.32576,2.141013 -5.53727,5.367252 -7.30019,7.333645 -0.40362,0.450205 -1.69636,1.890524 -2.87276,3.200692 -1.1764,1.310176 -2.38578,2.664483 -2.68751,3.009568 -2.801152,3.20373 -7.029762,7.129094 -9.591572,8.903745 -4.48,3.103448 -8.49363,4.807698 -13.676694,5.807298 -2.71385,0.523404 -6.581769,0.726974 -10.040772,0.528444 z"
       id="path2111" />
    <path
       style="fill:#000000;fill-opacity:1;stroke-width:0.136798"
       d="m 68.544506,79.005504 c -0.313692,-0.14243 -0.285931,-0.176188 -0.377196,-0.346724 0,0 -0.168809,-0.576876 0.240879,-1.107831 0.727915,-0.943397 1.193302,-1.492937 2.516606,-3.684016 1.947659,-3.224848 3.712017,-5.782414 6.433493,-9.325825 1.619174,-2.108194 5.27701,-6.293899 8.0356,-9.195248 7.44042,-7.825439 15.193272,-14.442197 23.235062,-19.830212 1.68573,-1.129445 6.99938,-4.398246 7.14963,-4.398246 0.0322,0 0.31854,-0.164211 0.63647,-0.36491 0.87684,-0.553525 6.27093,-3.228009 7.89802,-3.915974 8.61827,-3.643987 15.3776,-5.491868 23.46095,-6.413819 3.9492,-0.450435 10.41591,-0.448593 14.36383,0.0044 11.66534,1.337574 22.08001,5.480378 31.32686,12.4614 5.37854,4.060574 9.28207,7.990297 17.7408,17.859815 6.94375,8.101838 9.81553,10.751103 12.83367,11.839233 0.70521,0.254246 1.17225,0.321239 2.25718,0.323782 1.63437,0.0035 3.06747,-0.390864 5.12994,-1.412851 1.91635,-0.949571 2.88595,-1.557875 9.05141,-5.678685 7.28608,-4.869789 11.20548,-6.869445 16.19653,-8.263375 6.17075,-1.723398 12.00456,-1.293195 17.38138,1.28176 1.74277,0.834611 3.48366,1.968891 4.47824,2.917772 1.37267,1.309627 3.51256,4.018844 4.71413,5.968372 1.62749,2.640575 2.12883,4.89135 1.69864,5.560606 -0.12579,0.195685 -0.16126,0.875766 -3.1375,-0.811305 -7.39458,-4.191559 -11.55684,-5.98266 -15.13992,-6.51497 -2.52952,-0.375797 -4.85986,-0.205216 -7.6096,0.557033 -2.33923,0.64844 -5.70371,2.144061 -8.07112,3.587862 -0.48906,0.298252 -1.19699,0.72361 -1.57318,0.945239 -0.3762,0.221621 -2.74623,1.781543 -5.26674,3.466488 -4.59441,3.071337 -6.00825,3.96504 -7.95306,5.027207 -2.30336,1.257984 -5.25063,2.296411 -7.43677,2.620237 -1.42963,0.211762 -3.97497,0.214163 -5.26675,0.0053 -1.9498,-0.315747 -4.37979,-1.247523 -6.42952,-2.465389 -3.54501,-2.106237 -7.81519,-6.287963 -13.97715,-13.68754 -8.43601,-10.130371 -13.6221,-14.955817 -20.83808,-19.389008 -4.58855,-2.819013 -10.84849,-5.264506 -16.48422,-6.439685 -3.97485,-0.828844 -6.40489,-1.052591 -11.35428,-1.045443 -4.89342,0.0071 -6.89581,0.191203 -11.21748,1.031545 -14.18424,2.758114 -28.55928,10.445587 -43.431132,23.226066 -1.27775,1.098059 -2.41981,2.089893 -2.53791,2.204065 -0.11811,0.114181 -0.76557,0.698116 -1.43879,1.297651 -3.12181,2.780073 -6.77827,6.27457 -13.26231,12.674845 -5.309998,5.241405 -6.372865,6.245409 -7.956039,7.515405 -2.478153,1.987946 -4.467357,2.620884 -6.020573,1.915672 z"
       id="path2150" />
    <path
       style="fill:#000000;fill-opacity:1;stroke-width:0.273598"
       d="m 68.704466,96.793441 c -2.081363,-0.163734 -5.702142,-0.897464 -8.036634,-1.628584 -5.782865,-1.81109 -8.379602,-4.559758 -5.594108,-5.921409 0.933025,-0.456095 1.353528,-0.468647 5.745537,-0.171457 5.783486,0.391333 13.546431,0.185931 16.338143,-0.432294 7.836004,-1.735303 11.900034,-4.802777 22.109504,-16.68794 9.898732,-11.523442 17.065992,-17.519726 26.445852,-22.125171 9.00976,-4.42374 17.514,-6.467394 26.89897,-6.464107 8.78055,0.0027 16.1169,1.80088 23.59354,5.781678 7.11067,3.785955 12.33907,8.41701 20.49837,18.156446 9.63252,11.497975 13.18119,14.148224 19.49527,14.559683 5.60951,0.365539 10.12736,-1.043609 21.54966,-6.721524 4.46049,-2.217255 9.09493,-4.442686 10.29875,-4.945393 12.90189,-5.387678 21.35443,-5.127959 27.64716,0.849528 2.24665,2.134104 3.9503,4.622064 4.90604,7.164642 0.81914,2.179165 1.68501,6.287467 1.92345,9.126163 0.19344,2.30294 -0.52872,5.034925 -0.56395,4.573535 -0.0703,-0.92155 -0.70575,0.24252 -1.7621,-2.324329 -1.63531,-3.973738 -3.51668,-6.139705 -5.82348,-8.965707 -3.31429,-4.060291 -5.6035,-5.245913 -10.12676,-5.244797 -5.14948,0.0018 -9.31812,1.503433 -21.88374,7.885736 -4.39806,2.233846 -9.29538,4.568339 -10.88295,5.187759 -7.96642,3.108268 -15.5123,3.782168 -21.56682,1.926072 -3.00907,-0.922466 -6.85143,-3.068006 -9.63483,-5.379998 -3.13548,-2.604444 -4.76172,-4.334512 -10.13355,-10.780495 -9.48328,-11.379569 -15.60487,-16.273222 -24.02119,-19.202749 -11.30291,-3.934284 -24.19156,-2.7804 -36.61134,3.277704 -8.0561,3.929599 -14.4696,9.115489 -22.99074,18.590069 -8.648362,9.616043 -12.526912,13.12838 -17.571872,15.912685 -5.54808,3.06199 -13.139047,4.563324 -20.246182,4.004254 z"
       id="path2226" />
  </g>
  <g
     id="layer1"
     style="display:none">
    <path
       style="display:inline;fill:#00ffbf;fill-opacity:1;stroke:#000000;stroke-width:0.264583px;stroke-linecap:butt;stroke-linejoin:miter;stroke-opacity:1"
       d="m 31.005827,14.764983 c -9.346791,18.693582 -0.43813,27.164112 -0.43813,27.164112 z"
       id="path909" />
    <path
       style="display:inline;fill:#00aaff;fill-opacity:1;stroke:#000000;stroke-width:0.264583px;stroke-linecap:butt;stroke-linejoin:miter;stroke-opacity:1"
       d="M 49.804578,16.400153 C 50.630495,44.083964 81.602392,30.24206 81.602392,30.24206 L 77.472807,10.202286 Z"
       id="path1010" />
    <path
       style="fill:#00ffff;fill-opacity:1;stroke:#000000;stroke-width:0.264583px;stroke-linecap:butt;stroke-linejoin:miter;stroke-opacity:1"
       d="M 32.426285,58.449929 C 50.60153,46.677328 50.60153,46.470792 50.60153,46.470792 v 24.37135 z"
       id="path1400" />
    <path
       style="fill:#e7e7e7;fill-opacity:1;stroke:#000000;stroke-width:0.264583px;stroke-linecap:butt;stroke-linejoin:miter;stroke-opacity:1"
       d="m 61.647916,49.741666 12.435416,-8.73125 -3.439583,13.758333 z"
       id="path1468" />
  </g>
</svg>
